<svg version="1.1" id="Layer_1" xmlns="http://www.w3.org/2000/svg" xmlns:xlink="http://www.w3.org/1999/xlink" x="0px"
    y="0px" viewBox="205 298.80078125 590.1015625 402.5" style="enable-background:new 0 0 1000 1000;"
    xml:space="preserve">
    <g>
        <path
            d="M205.3,700.4H205C205,700.5,205.1,700.5,205.3,700.4 M229.6,696.4c-1.5,0.9-3.3,1.3-5.3,1.3h-11.3v-38.3		c0-1.8,0.2-3.2,0.7-4.2c0.5-0.9,1-1.6,1.5-1.9c0.3-0.2,0.5-0.3,0.7-0.3h-10.7c0.1,0,0.4,0.2,0.7,0.3c0.6,0.3,1,1,1.5,1.9		c0.4,0.9,0.7,2.3,0.7,4.2v34.1c0,2-0.2,3.5-0.7,4.5c-0.4,1-0.9,1.7-1.5,2.1c-0.2,0.2-0.4,0.3-0.6,0.3h26.3l1.2-7.3		C232.1,694.4,231.1,695.5,229.6,696.4 M293.3,693.8l-17.9-43l-18,42.8c-1.2,2.7-2.2,4.5-3,5.4c-0.9,0.9-1.5,1.4-2,1.4h9.9		c-1.4-0.6-2.1-1.7-2.1-3.2c0-1.1,0.3-2.5,1-4.2l4.4-11h17.2l4.8,11.7c0.7,1.8,1.1,3.2,1.1,4.1c0,1.2-0.6,2-1.7,2.6h11.4		c-0.6-0.1-1.3-0.6-2.2-1.5C295.3,698,294.3,696.3,293.3,693.8 M266.9,679.2l7.4-18.4l7.5,18.4H266.9z M321,653h0.3		C321.1,652.9,321,652.9,321,653 M354.4,697.9c-1.1-1-2.4-2.3-4-4.1l-12.1-15.4l1.1-0.2c2.2-0.5,4.1-1.4,5.7-2.7		c1.6-1.3,2.9-2.9,3.8-4.6c0.9-1.8,1.3-3.6,1.3-5.4c0-2.2-0.5-4.2-1.6-6.1c-1-1.9-2.7-3.4-5-4.6c-2.3-1.2-5.3-1.8-8.9-1.8h-13.4		c0.1,0.1,0.3,0.2,0.6,0.3c0.6,0.3,1,1,1.5,2c0.4,1,0.7,2.4,0.7,4.3v34.5c0,1.8-0.2,3.2-0.7,4.1c-0.4,0.9-0.9,1.5-1.5,1.9		c-0.3,0.2-0.5,0.3-0.7,0.3h10.6c-0.1,0-0.3-0.1-0.7-0.3c-0.6-0.3-1.1-0.9-1.5-1.9c-0.5-0.9-0.7-2.3-0.7-4.2v-38.3h5.9		c2.3,0,4.2,0.5,5.7,1.5c1.6,1,2.7,2.3,3.5,3.9c0.8,1.6,1.1,3.3,1.1,5.1c0,1.7-0.4,3.4-1.2,5c-0.8,1.6-2,2.9-3.6,3.9		c-1.6,1-3.4,1.5-5.5,1.5h-4.1l18.8,23.9h8.1c-0.1,0-0.4-0.2-0.9-0.6C356.2,699.5,355.4,698.9,354.4,697.9 M321.1,700.4H321		C321,700.4,321,700.4,321.1,700.4 M331.9,700.4h-0.2C331.9,700.4,331.9,700.4,331.9,700.4 M401.4,677.4c-1.7-1.1-3.8-2.2-6.3-3.4		c-2.5-1.2-4.5-2.2-5.9-3c-1.4-0.8-2.6-1.8-3.6-3.1c-1-1.2-1.4-2.7-1.4-4.4c0-2.3,0.8-4.4,2.4-6.1c1.6-1.7,3.7-2.6,6.3-2.6		c2.3,0,4.6,0.7,6.8,2.1c2.2,1.4,3.9,3.4,5,5.9v-7.4c-1.7-1.1-3.5-1.9-5.5-2.4c-2-0.6-4-0.9-6.1-0.9c-2.4,0-4.6,0.5-6.6,1.6		c-2,1-3.6,2.5-4.8,4.4c-1.2,1.9-1.8,4.1-1.8,6.5c0,2.9,0.9,5.3,2.7,7.3c1.8,2,4.7,3.9,8.7,5.8c2.8,1.3,5.1,2.5,6.6,3.6		c1.6,1.1,2.7,2.2,3.4,3.5c0.7,1.2,1.1,2.7,1.1,4.5c0,2.6-0.9,4.8-2.7,6.6c-1.8,1.8-4,2.7-6.7,2.7c-2.7,0-5.2-0.8-7.7-2.4		c-2.5-1.6-4.3-3.9-5.5-7v8.3c1.7,1.2,3.7,2.1,5.9,2.8c2.2,0.7,4.5,1,6.9,1c2.6,0,5-0.5,7.1-1.6c2.2-1.1,3.9-2.6,5.2-4.7		c1.3-2,2-4.4,2-7.2c0-2.4-0.6-4.5-1.7-6.2C404.4,679.9,403,678.5,401.4,677.4 M499.7,679.3c0.6,0.3,1.1,0.9,1.5,1.7		c0.5,0.8,0.7,1.9,0.7,3.3v11.4c-1.5,0.7-3.2,1.3-4.9,1.7c-1.8,0.4-3.5,0.6-5.1,0.6c-3.6,0-7-0.8-10.1-2.5c-3.1-1.7-5.6-4.1-7.4-7.4		c-1.9-3.3-2.8-7.3-2.8-11.9c0-4.3,0.8-8,2.4-11.2c1.6-3.2,3.9-5.6,6.9-7.3c3-1.7,6.6-2.6,10.7-2.6c2.9,0,5.8,0.8,8.7,2.3		c2.8,1.5,5,3.5,6.4,6v-7.7c-1.5-0.9-3.6-1.7-6.2-2.4c-2.6-0.7-5.5-1.1-8.7-1.1c-5.1,0-9.5,1.1-13.4,3.2c-3.9,2.1-6.9,5-9,8.8		c-2.1,3.7-3.2,7.9-3.2,12.6c0,5.3,1.1,9.8,3.4,13.4c2.3,3.7,5.2,6.4,9,8.3c3.7,1.8,7.8,2.8,12.1,2.8c2.8,0,5.6-0.4,8.4-1.2		c2.8-0.8,5.5-2,7.9-3.5v-12.6c0-1.4,0.2-2.4,0.7-3.2c0.5-0.8,1-1.3,1.5-1.6c0.3-0.1,0.5-0.2,0.6-0.3H499		C499.1,678.9,499.3,679,499.7,679.3 M509.7,678.9h0.2C509.9,678.8,509.8,678.8,509.7,678.9 M536.1,700.4h-0.3		C535.9,700.5,535.9,700.5,536.1,700.4 M559.9,696.4c-1.5,0.9-3.3,1.3-5.3,1.3h-10.8v-19.6h11.9c0.9,0,1.7,0.1,2.3,0.4		c0.6,0.3,1.1,0.6,1.4,0.9c0.3,0.3,0.5,0.5,0.6,0.6v-6.7c0,0.1-0.2,0.3-0.6,0.6c-0.3,0.3-0.8,0.6-1.4,0.9c-0.6,0.3-1.4,0.4-2.3,0.4		h-11.9v-19.6h9.6c4.1,0,6.6,1.4,7.4,4.1V653h-24.7c0.1,0.1,0.3,0.2,0.6,0.3c0.6,0.4,1,1,1.5,2c0.4,1,0.7,2.4,0.7,4.3v33.9		c0,2-0.2,3.5-0.7,4.5c-0.4,1-0.9,1.7-1.5,2.1c-0.2,0.2-0.4,0.3-0.6,0.3h25.7l1.2-7.3C562.5,694.4,561.4,695.5,559.9,696.4		 M535.9,653h0.2C535.9,652.9,535.9,652.9,535.9,653 M622.2,697.9c-1.1-1-2.4-2.3-4-4.1l-12.1-15.4l1.1-0.2c2.2-0.5,4.1-1.4,5.7-2.7		c1.6-1.3,2.9-2.9,3.8-4.6c0.9-1.8,1.3-3.6,1.3-5.4c0-2.2-0.5-4.2-1.6-6.1c-1-1.9-2.7-3.4-5-4.6c-2.3-1.2-5.3-1.8-8.9-1.8h-13.4		c0.1,0.1,0.3,0.2,0.6,0.3c0.6,0.3,1,1,1.5,2c0.4,1,0.7,2.4,0.7,4.3v34.5c0,1.8-0.2,3.2-0.7,4.1c-0.4,0.9-0.9,1.5-1.5,1.9		c-0.3,0.2-0.5,0.3-0.7,0.3h10.6c-0.1,0-0.3-0.1-0.7-0.3c-0.6-0.3-1.1-0.9-1.5-1.9c-0.5-0.9-0.7-2.3-0.7-4.2v-38.3h5.9		c2.3,0,4.2,0.5,5.7,1.5c1.6,1,2.7,2.3,3.5,3.9c0.8,1.6,1.1,3.3,1.1,5.1c0,1.7-0.4,3.4-1.2,5c-0.8,1.6-2,2.9-3.6,3.9		c-1.6,1-3.4,1.5-5.5,1.5h-4.1l18.8,23.9h8.1c-0.1,0-0.4-0.2-0.9-0.6C624,699.5,623.3,698.9,622.2,697.9 M599.8,700.4h-0.2		C599.7,700.4,599.8,700.4,599.8,700.4 M588.8,653h0.3C588.9,652.9,588.8,652.9,588.8,653 M589,700.4h-0.1		C588.8,700.4,588.9,700.4,589,700.4 M672.4,678.3c-1.9-1-3.8-1.6-5.9-1.8c3-0.6,5.5-2.1,7.3-4.3c1.9-2.2,2.8-4.9,2.8-8		c0-2-0.6-3.9-1.7-5.7c-1.1-1.7-2.7-3.1-4.7-4.1c-1.2-0.5-2.5-0.9-4-1.1c-1.5-0.3-3.8-0.4-6.7-0.4h-11.3c0.6,0.2,1.3,0.7,1.9,1.6		c0.6,0.9,1,2.5,1,4.9v34.1c0,2.6-0.3,4.3-1,5.2c-0.7,0.9-1.3,1.4-1.9,1.6h11.4c2.7,0,4.8-0.1,6.4-0.3c1.5-0.2,2.9-0.5,4.1-0.9		c2.7-0.9,4.8-2.3,6.3-4.2c1.6-1.9,2.3-4.3,2.3-7.2c0-2.1-0.6-4-1.8-5.7C675.7,680.5,674.2,679.2,672.4,678.3 M656.1,655.7h4.8		c1.8,0,3.2,0.2,4.3,0.5c1.1,0.3,2,0.9,3,1.6c1.1,0.9,2,2,2.6,3.4c0.6,1.4,0.9,2.9,0.9,4.4c0,1.3-0.3,2.6-0.8,3.8		c-0.5,1.2-1.2,2.3-2.1,3.2c-0.8,0.8-1.8,1.5-2.9,2c-1.1,0.5-2.5,0.8-4.1,0.8h-5.6V655.7z M670.4,695.3c-1.9,1.6-4.4,2.3-7.8,2.3		h-6.6v-19.6h5c2.2,0,4,0.2,5.2,0.5c1.3,0.3,2.4,0.8,3.2,1.5c2.4,2,3.7,4.6,3.7,7.8C673.2,691.2,672.2,693.7,670.4,695.3		 M729.5,696.4c-1.5,0.9-3.3,1.3-5.3,1.3h-10.8v-19.6h11.9c0.9,0,1.7,0.1,2.3,0.4c0.6,0.3,1.1,0.6,1.4,0.9c0.3,0.3,0.5,0.5,0.6,0.6		v-6.7c0,0.1-0.2,0.3-0.6,0.6c-0.3,0.3-0.8,0.6-1.4,0.9c-0.6,0.3-1.4,0.4-2.3,0.4h-11.9v-19.6h9.6c4.1,0,6.6,1.4,7.4,4.1V653h-24.7		c0.1,0.1,0.3,0.2,0.6,0.3c0.6,0.4,1,1,1.5,2c0.4,1,0.7,2.4,0.7,4.3v33.9c0,2-0.2,3.5-0.7,4.5c-0.4,1-0.9,1.7-1.5,2.1		c-0.2,0.2-0.4,0.3-0.6,0.3h25.7l1.2-7.3C732.1,694.4,731,695.5,729.5,696.4 M705.5,653h0.2C705.6,652.9,705.5,652.9,705.5,653		 M705.8,700.4h-0.3C705.5,700.5,705.6,700.5,705.8,700.4 M777.8,675.1c-1.6,1-3.4,1.5-5.5,1.5h-4.1l18.8,23.9h8.1		c-0.1,0-0.4-0.2-0.9-0.6c-0.5-0.3-1.3-1-2.3-1.9c-1.1-1-2.4-2.3-4-4.1l-12.1-15.4l1.1-0.2c2.2-0.5,4.1-1.4,5.7-2.7		c1.6-1.3,2.9-2.9,3.8-4.6c0.9-1.8,1.3-3.6,1.3-5.4c0-2.2-0.5-4.2-1.6-6.1c-1-1.9-2.7-3.4-5-4.6c-2.3-1.2-5.3-1.8-8.9-1.8h-13.4		c0.1,0.1,0.3,0.2,0.6,0.3c0.6,0.3,1,1,1.5,2c0.4,1,0.7,2.4,0.7,4.3v34.5c0,1.8-0.2,3.2-0.7,4.1c-0.4,0.9-0.9,1.5-1.5,1.9		c-0.3,0.2-0.5,0.3-0.7,0.3h10.6c-0.1,0-0.3-0.1-0.7-0.3c-0.6-0.3-1.1-0.9-1.5-1.9c-0.5-0.9-0.7-2.3-0.7-4.2v-38.3h5.9		c2.3,0,4.2,0.5,5.7,1.5c1.6,1,2.7,2.3,3.5,3.9c0.8,1.6,1.1,3.3,1.1,5.1c0,1.7-0.4,3.4-1.2,5C780.6,672.8,779.4,674.1,777.8,675.1		 M758.5,653h0.3C758.5,652.9,758.5,652.9,758.5,653 M769.4,700.4h-0.2C769.4,700.4,769.4,700.4,769.4,700.4 M758.6,700.4h-0.2		C758.5,700.4,758.5,700.4,758.6,700.4">
        </path>
        <path
            d="M470.2,351.5v15.3c13.6-16.5,32.5-28,56.9-30.9c3-0.3,6-0.7,9-0.7c27.1,0,56.1,12.7,68.8,27.4c5.3,6.7,5.3,11.7-4,37.7		l1.7,1l17.4-37.1c-25.1-27.1-56.8-37.4-93.5-37.4c-21,0-39.6,3.7-55.5,10.2C470.4,341.3,470.2,346.1,470.2,351.5 M416,342.4		l-0.2,117.7c0.6,4.9,1.5,10,2.6,15.2c3.4,15.1,9.2,30.8,19,44.1c6.5,8.9,14.7,16.8,25.2,22.9c3.5,2.1,7.3,3.9,11.4,5.6		c-6.8-8.4-10.7-19.1-10.7-30.3V342.4c0-5.5,0.2-10.2,0.7-14.3c2.6-22.3,13.1-25.8,37.7-25.8v-3.5H377.2v3.5		C406.3,302.3,416,307.2,416,342.4 M655.7,481.8h-95.9c0,0.9,0,1.7,0,2.6c0-0.6,12.8,0.9,13.9,1c7.2,0.9,12.5,4.6,15.2,11.7		c1.7,4.5,2,9.4,1.7,14.2c-1.1,15.4-8.5,30.1-20.1,40.2c-12.1,10.5-28.2,14.6-44,15c-10.3,0.3-20.4-0.3-30.2-3.5		c-9.5-1.4-18.1-3.7-25.8-6.9c-13.3-5.4-24-13.1-32.6-22.1c-10.2-10.8-17.3-23.4-22.2-36.2v28.9c0,5.5-0.2,10.2-0.7,14.3		c-2.6,22.3-13.1,25.8-37.6,25.8v5.2c0,0,138.2-0.2,145.5,0c1.2,0,2.3,0,3.5,0c22.2,0,44.5-4.1,64.4-14c6.3-3.1,12.9-6.9,19.8-5.9		c7.1,1,13.1,7.7,13.2,14.9c0.8,0,1.7,0,2.5,0c-0.8-21.1-1.6-42.2,0.3-63.2c0.4-5,1.2-10.3,4.5-13.9c2.9-3.2,7.3-4.6,11.6-5		c4.3-0.5,8.6-0.1,12.9-0.5C655.7,483.5,655.7,482.6,655.7,481.8">
        </path>
    </g>
</svg>