<svg version="1.1" id="Layer_1" xmlns="http://www.w3.org/2000/svg" xmlns:xlink="http://www.w3.org/1999/xlink" x="0px"
    y="0px" viewBox="241.19921875 246 517.6015625 508.30078125" style="enable-background:new 0 0 1000 1000;"
    xml:space="preserve">
    <path
        d="M414.1,344.1v28.5c25.3-30.6,60.3-52.1,105.7-57.4c5.6-0.6,11.2-1.2,16.8-1.2c50.3,0,104.3,23.6,127.9,50.9   c9.9,12.4,9.9,21.7-7.4,70.1l3.1,1.9l32.3-68.9c-46.5-50.3-105.5-69.5-173.8-69.5c-39.1,0-73.5,6.9-103.2,19   C414.5,325,414.1,333.9,414.1,344.1 M313.3,327.1l-0.4,218.7c1.2,9.2,2.8,18.6,4.9,28.2c6.3,28.1,17.1,57.2,35.3,82   c12.1,16.5,27.4,31.1,46.9,42.6c6.6,3.8,13.6,7.3,21.2,10.4c-12.6-15.6-19.9-35.5-19.9-56.4V327.1c0-10.2,0.4-19,1.3-26.7   c4.9-41.5,24.3-47.9,70-47.9V246H241.2v6.6C295.2,252.6,313.3,261.6,313.3,327.1 M758.8,586.1H580.6c0,1.6,0,3.2-0.1,4.9   c0-1.1,23.8,1.6,25.7,1.9c13.3,1.7,23.3,8.6,28.3,21.8c3.2,8.3,3.7,17.5,3.1,26.4c-2,28.6-15.8,55.9-37.4,74.7   c-22.5,19.6-52.4,27.1-81.7,27.9c-19.1,0.5-38-0.5-56.1-6.4c-17.7-2.6-33.6-7-48-12.8c-24.7-10-44.6-24.3-60.5-41   c-19-20-32.1-43.4-41.2-67.3v53.7c0,10.2-0.4,19-1.3,26.7c-4.9,41.5-24.3,47.9-70,47.9v9.7c0,0,256.8-0.3,270.4,0   c2.2,0,4.4,0.1,6.6,0.1c41.2,0,82.6-7.6,119.7-26c11.7-5.8,23.9-12.7,36.8-10.9c13.3,1.9,24.3,14.3,24.6,27.7c1.6,0,3.2,0,4.7-0.1   c-1.5-39.2-2.9-78.5,0.6-117.5c0.8-9.2,2.2-19.1,8.4-25.9c5.4-5.9,13.6-8.5,21.5-9.3c7.9-0.9,16-0.3,23.9-1   C758.8,589.3,758.8,587.7,758.8,586.1">
    </path>
</svg>