<svg version="1.1" id="Layer_1" xmlns="http://www.w3.org/2000/svg" xmlns:xlink="http://www.w3.org/1999/xlink" x="0px"
    y="0px" viewBox="205 474.80078125 590.1015625 50.5" style="enable-background:new 0 0 1000 1000;"
    xml:space="preserve">
    <path
        d="M205.3,524.4H205C205,524.5,205.1,524.5,205.3,524.4 M229.6,520.4c-1.5,0.9-3.3,1.3-5.3,1.3h-11.3v-38.3   c0-1.8,0.2-3.2,0.7-4.2c0.5-0.9,1-1.6,1.5-1.9c0.3-0.2,0.5-0.3,0.7-0.3h-10.7c0.1,0,0.4,0.2,0.7,0.3c0.6,0.3,1,1,1.5,1.9   c0.4,0.9,0.7,2.3,0.7,4.2v34.1c0,2-0.2,3.5-0.7,4.5c-0.4,1-0.9,1.7-1.5,2.1c-0.2,0.2-0.4,0.3-0.6,0.3h26.3l1.2-7.3   C232.1,518.4,231.1,519.5,229.6,520.4 M293.3,517.8l-17.9-43l-18,42.8c-1.2,2.7-2.2,4.5-3,5.4c-0.9,0.9-1.5,1.4-2,1.4h9.9   c-1.4-0.6-2.1-1.7-2.1-3.2c0-1.1,0.3-2.5,1-4.2l4.4-11h17.2l4.8,11.7c0.7,1.8,1.1,3.2,1.1,4.1c0,1.2-0.6,2-1.7,2.6h11.4   c-0.6-0.1-1.3-0.6-2.2-1.5C295.3,522,294.3,520.3,293.3,517.8 M266.9,503.2l7.4-18.4l7.5,18.4H266.9z M321,477h0.3   C321.1,476.9,321,476.9,321,477 M354.4,521.9c-1.1-1-2.4-2.3-4-4.1l-12.1-15.4l1.1-0.2c2.2-0.5,4.1-1.4,5.7-2.7   c1.6-1.3,2.9-2.9,3.8-4.6c0.9-1.8,1.3-3.6,1.3-5.4c0-2.2-0.5-4.2-1.6-6.1c-1-1.9-2.7-3.4-5-4.6c-2.3-1.2-5.3-1.8-8.9-1.8h-13.4   c0.1,0.1,0.3,0.2,0.6,0.3c0.6,0.3,1,1,1.5,2c0.4,1,0.7,2.4,0.7,4.3v34.5c0,1.8-0.2,3.2-0.7,4.1c-0.4,0.9-0.9,1.5-1.5,1.9   c-0.3,0.2-0.5,0.3-0.7,0.3h10.6c-0.1,0-0.3-0.1-0.7-0.3c-0.6-0.3-1.1-0.9-1.5-1.9c-0.5-0.9-0.7-2.3-0.7-4.2v-38.3h5.9   c2.3,0,4.2,0.5,5.7,1.5c1.6,1,2.7,2.3,3.5,3.9c0.8,1.6,1.1,3.3,1.1,5.1c0,1.7-0.4,3.4-1.2,5c-0.8,1.6-2,2.9-3.6,3.9   c-1.6,1-3.4,1.5-5.5,1.5h-4.1l18.8,23.9h8.1c-0.1,0-0.4-0.2-0.9-0.6C356.2,523.5,355.4,522.9,354.4,521.9 M321.1,524.4H321   C321,524.4,321,524.4,321.1,524.4 M331.9,524.4h-0.2C331.9,524.4,331.9,524.5,331.9,524.4 M401.4,501.4c-1.7-1.1-3.8-2.2-6.3-3.4   c-2.5-1.2-4.5-2.2-5.9-3s-2.6-1.8-3.6-3.1c-1-1.2-1.4-2.7-1.4-4.4c0-2.3,0.8-4.4,2.4-6.1c1.6-1.7,3.7-2.6,6.3-2.6   c2.3,0,4.6,0.7,6.8,2.1c2.2,1.4,3.9,3.4,5,5.9v-7.4c-1.7-1.1-3.5-1.9-5.5-2.4c-2-0.6-4-0.9-6.1-0.9c-2.4,0-4.6,0.5-6.6,1.6   c-2,1-3.6,2.5-4.8,4.4c-1.2,1.9-1.8,4.1-1.8,6.5c0,2.9,0.9,5.3,2.7,7.3c1.8,2,4.7,3.9,8.7,5.8c2.8,1.3,5.1,2.5,6.6,3.6   c1.6,1.1,2.7,2.2,3.4,3.5c0.7,1.2,1.1,2.7,1.1,4.5c0,2.6-0.9,4.8-2.7,6.6c-1.8,1.8-4,2.7-6.7,2.7c-2.7,0-5.2-0.8-7.7-2.4   c-2.5-1.6-4.3-3.9-5.5-7v8.3c1.7,1.2,3.7,2.1,5.9,2.8c2.2,0.7,4.5,1,6.9,1c2.6,0,5-0.5,7.1-1.6c2.2-1.1,3.9-2.6,5.2-4.7   c1.3-2,2-4.4,2-7.2c0-2.4-0.6-4.5-1.7-6.2C404.4,503.9,403,502.5,401.4,501.4 M499.7,503.3c0.6,0.3,1.1,0.9,1.5,1.7   c0.5,0.8,0.7,1.9,0.7,3.3v11.4c-1.5,0.7-3.2,1.3-4.9,1.7c-1.8,0.4-3.5,0.6-5.1,0.6c-3.6,0-7-0.8-10.1-2.5c-3.1-1.7-5.6-4.1-7.4-7.4   c-1.9-3.3-2.8-7.3-2.8-11.9c0-4.3,0.8-8,2.4-11.2c1.6-3.2,3.9-5.6,6.9-7.3c3-1.7,6.6-2.6,10.7-2.6c2.9,0,5.8,0.8,8.7,2.3   c2.8,1.5,5,3.5,6.4,6v-7.7c-1.5-0.9-3.6-1.7-6.2-2.4c-2.6-0.7-5.5-1.1-8.7-1.1c-5.1,0-9.5,1.1-13.4,3.2c-3.9,2.1-6.9,5-9,8.8   c-2.1,3.7-3.2,7.9-3.2,12.6c0,5.3,1.1,9.8,3.4,13.4c2.3,3.7,5.2,6.4,9,8.3c3.7,1.8,7.8,2.8,12.1,2.8c2.8,0,5.6-0.4,8.4-1.2   c2.8-0.8,5.5-2,7.9-3.5v-12.6c0-1.4,0.2-2.4,0.7-3.2c0.5-0.8,1-1.3,1.5-1.6c0.3-0.1,0.5-0.2,0.6-0.3H499   C499.1,502.9,499.3,503.1,499.7,503.3 M509.7,502.9h0.2C509.9,502.8,509.8,502.8,509.7,502.9 M536.1,524.4h-0.3   C535.9,524.5,535.9,524.5,536.1,524.4 M559.9,520.4c-1.5,0.9-3.3,1.3-5.3,1.3h-10.8v-19.6h11.9c0.9,0,1.7,0.1,2.3,0.4   c0.6,0.3,1.1,0.6,1.4,0.9c0.3,0.3,0.5,0.5,0.6,0.6v-6.7c0,0.1-0.2,0.3-0.6,0.6c-0.3,0.3-0.8,0.6-1.4,0.9c-0.6,0.3-1.4,0.4-2.3,0.4   h-11.9v-19.6h9.6c4.1,0,6.6,1.4,7.4,4.1V477h-24.7c0.1,0.1,0.3,0.2,0.6,0.3c0.6,0.4,1,1,1.5,2c0.4,1,0.7,2.4,0.7,4.3v33.9   c0,2-0.2,3.5-0.7,4.5c-0.4,1-0.9,1.7-1.5,2.1c-0.2,0.2-0.4,0.3-0.6,0.3h25.7l1.2-7.3C562.5,518.4,561.4,519.5,559.9,520.4    M535.9,477h0.2C535.9,476.9,535.9,476.9,535.9,477 M622.2,521.9c-1.1-1-2.4-2.3-4-4.1l-12.1-15.4l1.1-0.2c2.2-0.5,4.1-1.4,5.7-2.7   c1.6-1.3,2.9-2.9,3.8-4.6c0.9-1.8,1.3-3.6,1.3-5.4c0-2.2-0.5-4.2-1.6-6.1c-1-1.9-2.7-3.4-5-4.6c-2.3-1.2-5.3-1.8-8.9-1.8h-13.4   c0.1,0.1,0.3,0.2,0.6,0.3c0.6,0.3,1,1,1.5,2c0.4,1,0.7,2.4,0.7,4.3v34.5c0,1.8-0.2,3.2-0.7,4.1c-0.4,0.9-0.9,1.5-1.5,1.9   c-0.3,0.2-0.5,0.3-0.7,0.3h10.6c-0.1,0-0.3-0.1-0.7-0.3c-0.6-0.3-1.1-0.9-1.5-1.9c-0.5-0.9-0.7-2.3-0.7-4.2v-38.3h5.9   c2.3,0,4.2,0.5,5.7,1.5c1.6,1,2.7,2.3,3.5,3.9c0.8,1.6,1.1,3.3,1.1,5.1c0,1.7-0.4,3.4-1.2,5c-0.8,1.6-2,2.9-3.6,3.9   c-1.6,1-3.4,1.5-5.5,1.5h-4.1l18.8,23.9h8.1c-0.1,0-0.4-0.2-0.9-0.6C624,523.5,623.3,522.9,622.2,521.9 M599.8,524.4h-0.2   C599.7,524.4,599.8,524.5,599.8,524.4 M588.8,477h0.3C588.9,476.9,588.8,476.9,588.8,477 M589,524.4h-0.1   C588.8,524.4,588.9,524.4,589,524.4 M672.4,502.3c-1.9-1-3.8-1.6-5.9-1.8c3-0.6,5.5-2.1,7.3-4.3c1.9-2.2,2.8-4.9,2.8-8   c0-2-0.6-3.9-1.7-5.7c-1.1-1.7-2.7-3.1-4.7-4.1c-1.2-0.5-2.5-0.9-4-1.1c-1.5-0.3-3.8-0.4-6.7-0.4h-11.3c0.6,0.2,1.3,0.7,1.9,1.6   c0.6,0.9,1,2.5,1,4.9v34.1c0,2.6-0.3,4.3-1,5.2c-0.7,0.9-1.3,1.4-1.9,1.6h11.4c2.7,0,4.8-0.1,6.4-0.3c1.5-0.2,2.9-0.5,4.1-0.9   c2.7-0.9,4.8-2.3,6.3-4.2c1.6-1.9,2.3-4.3,2.3-7.2c0-2.1-0.6-4-1.8-5.7C675.7,504.6,674.2,503.2,672.4,502.3 M656.1,479.7h4.8   c1.8,0,3.2,0.2,4.3,0.5c1.1,0.3,2,0.9,3,1.6c1.1,0.9,2,2,2.6,3.4c0.6,1.4,0.9,2.9,0.9,4.4c0,1.3-0.3,2.6-0.8,3.8   c-0.5,1.2-1.2,2.3-2.1,3.2c-0.8,0.8-1.8,1.5-2.9,2c-1.1,0.5-2.5,0.8-4.1,0.8h-5.6V479.7z M670.4,519.3c-1.9,1.6-4.4,2.3-7.8,2.3   h-6.6v-19.6h5c2.2,0,4,0.2,5.2,0.5c1.3,0.3,2.4,0.8,3.2,1.5c2.4,2,3.7,4.6,3.7,7.8C673.2,515.3,672.2,517.7,670.4,519.3    M729.5,520.4c-1.5,0.9-3.3,1.3-5.3,1.3h-10.8v-19.6h11.9c0.9,0,1.7,0.1,2.3,0.4c0.6,0.3,1.1,0.6,1.4,0.9c0.3,0.3,0.5,0.5,0.6,0.6   v-6.7c0,0.1-0.2,0.3-0.6,0.6c-0.3,0.3-0.8,0.6-1.4,0.9c-0.6,0.3-1.4,0.4-2.3,0.4h-11.9v-19.6h9.6c4.1,0,6.6,1.4,7.4,4.1V477h-24.7   c0.1,0.1,0.3,0.2,0.6,0.3c0.6,0.4,1,1,1.5,2c0.4,1,0.7,2.4,0.7,4.3v33.9c0,2-0.2,3.5-0.7,4.5c-0.4,1-0.9,1.7-1.5,2.1   c-0.2,0.2-0.4,0.3-0.6,0.3h25.7l1.2-7.3C732.1,518.4,731,519.5,729.5,520.4 M705.5,477h0.2C705.6,476.9,705.5,476.9,705.5,477    M705.8,524.4h-0.3C705.5,524.5,705.6,524.5,705.8,524.4 M777.8,499.1c-1.6,1-3.4,1.5-5.5,1.5h-4.1l18.8,23.9h8.1   c-0.1,0-0.4-0.2-0.9-0.6c-0.5-0.3-1.3-1-2.3-1.9c-1.1-1-2.4-2.3-4-4.1l-12.1-15.4l1.1-0.2c2.2-0.5,4.1-1.4,5.7-2.7   c1.6-1.3,2.9-2.9,3.8-4.6c0.9-1.8,1.3-3.6,1.3-5.4c0-2.2-0.5-4.2-1.6-6.1c-1-1.9-2.7-3.4-5-4.6c-2.3-1.2-5.3-1.8-8.9-1.8h-13.4   c0.1,0.1,0.3,0.2,0.6,0.3c0.6,0.3,1,1,1.5,2c0.4,1,0.7,2.4,0.7,4.3v34.5c0,1.8-0.2,3.2-0.7,4.1c-0.4,0.9-0.9,1.5-1.5,1.9   c-0.3,0.2-0.5,0.3-0.7,0.3h10.6c-0.1,0-0.3-0.1-0.7-0.3c-0.6-0.3-1.1-0.9-1.5-1.9c-0.5-0.9-0.7-2.3-0.7-4.2v-38.3h5.9   c2.3,0,4.2,0.5,5.7,1.5c1.6,1,2.7,2.3,3.5,3.9c0.8,1.6,1.1,3.3,1.1,5.1c0,1.7-0.4,3.4-1.2,5C780.6,496.8,779.4,498.1,777.8,499.1    M758.5,477h0.3C758.5,476.9,758.5,476.9,758.5,477 M769.4,524.4h-0.2C769.4,524.4,769.4,524.5,769.4,524.4 M758.6,524.4h-0.2   C758.5,524.4,758.5,524.4,758.6,524.4">
    </path>
</svg>