<?xml version="1.0" standalone="no"?>
<!DOCTYPE svg PUBLIC "-//W3C//DTD SVG 20010904//EN"
 "http://www.w3.org/TR/2001/REC-SVG-20010904/DTD/svg10.dtd">
<svg version="1.0" xmlns="http://www.w3.org/2000/svg"
 width="512.000000pt" height="512.000000pt" viewBox="0 0 512.000000 512.000000"
 preserveAspectRatio="xMidYMid meet">
<metadata>
Created by potrace 1.11, written by Peter Selinger 2001-2013
</metadata>
<g transform="translate(0.000000,512.000000) scale(0.100000,-0.100000)"
fill="#000000" stroke="none">
<path d="M4319 5103 c-15 -10 -84 -72 -154 -138 -69 -66 -152 -144 -183 -174
-67 -63 -289 -271 -341 -320 -49 -46 -294 -277 -340 -321 -21 -19 -95 -90
-167 -156 -164 -155 -182 -171 -339 -319 -71 -68 -151 -142 -176 -166 -26 -24
-80 -75 -121 -114 -106 -100 -337 -317 -378 -355 -19 -18 -100 -94 -179 -169
-163 -154 -150 -142 -336 -316 -156 -147 -172 -161 -356 -336 -74 -70 -150
-141 -169 -159 -19 -18 -93 -87 -164 -154 -70 -66 -155 -146 -188 -176 -63
-58 -88 -95 -88 -130 0 -31 27 -77 53 -92 17 -10 241 -13 1072 -15 578 -1
1055 -2 1062 -2 6 -1 343 -333 750 -739 639 -640 743 -740 774 -746 45 -8 80
5 108 40 l21 27 -3 2493 -2 2494 -25 24 c-34 34 -96 43 -131 19z"/>
</g>
</svg>
