<?xml version="1.0" standalone="no"?>
<svg
  width="400"
  height="400"
  viewBox="0 0 600 600"
  xmlns="http://www.w3.org/2000/svg"
>
  <g transform="translate(300,300)">
    <path d="M123.9,-192.7C163.7,-167.1,201.5,-138.2,217.9,-100.1C234.4,-62.1,229.5,-14.9,222.4,31.7C215.3,78.3,205.9,124.3,181.4,162.9C156.8,201.5,117.1,232.7,75.5,234.5C33.9,236.4,-9.7,208.8,-49.8,188.4C-89.9,168,-126.6,154.7,-162.1,130.9C-197.6,107.1,-231.9,72.7,-237.8,34C-243.6,-4.7,-221,-47.6,-203.5,-95.9C-186.1,-144.2,-173.9,-197.9,-140.8,-226.6C-107.8,-255.4,-53.9,-259.2,-5.9,-249.9C42,-240.7,84,-218.3,123.9,-192.7Z" fill="#0693e3" />
  </g>
</svg>
  